Coordinates
version=1
nRows=43
nColumns=12
inDegrees=yes

Units are S.I. units (second, meters, Newtons, ...)
Angles are in degrees

endheader
time	SC_y	SC_z	SC_x	AC_y	AC_z	AC_x	GH_y	GH_z	GH_yy	EL_x	PS_y
       0.0              -27.57          34.15          20.81          34.19          -1.61          15.59         -147.6          21.59          176.6          59.57          107.3
   0.03385              -27.57          34.15          20.81          34.19         -1.612          15.59         -147.6          21.59          176.6          59.57          107.3
    0.0677              -27.58          34.14          20.81          34.19         -1.614          15.59         -147.6          21.58          176.6          59.57          107.3
    0.1016              -27.58          34.14          20.81          34.19         -1.617          15.59         -147.5          21.58          176.5          59.56          107.3
    0.1354              -27.59          34.14          20.81           34.2         -1.619          15.59         -147.5          21.57          176.5          59.56          107.3
    0.1693              -27.59          34.14          20.81           34.2         -1.622          15.59         -147.5          21.57          176.5          59.56          107.3
    0.2031               -27.6          34.14          20.81           34.2         -1.624          15.59         -147.4          21.57          176.4          59.55          107.3
     0.237               -27.6          34.14          20.81           34.2         -1.627          15.59         -147.4          21.56          176.4          59.55          107.3
    0.2708              -27.61          34.14          20.81           34.2         -1.631          15.59         -147.3          21.56          176.3          59.55          107.3
    0.3047              -27.61          34.14          20.81          34.21         -1.634          15.59         -147.3          21.55          176.3          59.54          107.3
    0.3385              -27.62          34.14          20.82          34.21         -1.638          15.59         -147.2          21.55          176.2          59.54          107.3
    0.3724              -27.62          34.14          20.82          34.21         -1.642          15.58         -147.2          21.54          176.2          59.54          107.3
    0.4062              -27.63          34.13          20.82          34.22         -1.646          15.58         -147.1          21.53          176.1          59.53          107.3
    0.4401              -27.64          34.13          20.82          34.22         -1.651          15.58         -147.0          21.53          176.0          59.53          107.3
    0.4739              -27.65          34.13          20.82          34.23         -1.656          15.58         -147.0          21.52          176.0          59.52          107.3
    0.5078              -27.66          34.13          20.82          34.23         -1.661          15.58         -146.9          21.51          175.9          59.51          107.3
    0.5416              -27.67          34.13          20.82          34.24         -1.667          15.58         -146.8           21.5          175.8          59.51          107.3
    0.5755              -27.68          34.13          20.82          34.24         -1.674          15.58         -146.7          21.49          175.7           59.5          107.3
    0.6093              -27.69          34.12          20.83          34.25         -1.681          15.58         -146.6          21.48          175.6          59.49          107.3
    0.6432               -27.7          34.12          20.83          34.25         -1.688          15.57         -146.5          21.47          175.5          59.48          107.3
     0.677              -27.72          34.12          20.83          34.26         -1.697          15.57         -146.4          21.46          175.4          59.48          107.3
    0.7109              -27.73          34.12          20.83          34.27         -1.706          15.57         -146.2          21.44          175.2          59.46          107.3
    0.7447              -27.75          34.11          20.84          34.28         -1.717          15.57         -146.1          21.43          175.1          59.45          107.3
    0.7786              -27.77          34.11          20.84          34.29         -1.728          15.56         -145.9          21.41          174.9          59.44          107.3
    0.8124              -27.79           34.1          20.84           34.3         -1.741          15.56         -145.7          21.39          174.7          59.43          107.3
    0.8463              -27.82           34.1          20.84          34.31         -1.755          15.56         -145.5          21.37          174.5          59.41          107.2
    0.8801              -27.84          34.09          20.85          34.32         -1.771          15.55         -145.3          21.34          174.3          59.39          107.2
     0.914              -27.87          34.09          20.85          34.34         -1.789          15.55         -145.0          21.32          174.0          59.37          107.2
    0.9479              -27.91          34.08          20.86          34.35         -1.809          15.54         -144.7          21.28          173.7          59.35          107.2
    0.9817              -27.95          34.07          20.86          34.37         -1.832          15.54         -144.4          21.25          173.4          59.33          107.2
     1.016              -27.99          34.07          20.87          34.39         -1.858          15.53         -144.0          21.21          173.0           59.3          107.2
     1.049              -28.04          34.06          20.88          34.42         -1.888          15.53         -143.6          21.16          172.5          59.26          107.2
     1.083               -28.1          34.05          20.89          34.45         -1.923          15.52         -143.0          21.11          172.0          59.23          107.2
     1.117              -28.17          34.03           20.9          34.48         -1.963          15.51         -142.4          21.05          171.4          59.18          107.2
     1.151              -28.25          34.02          20.91          34.52          -2.01           15.5         -141.8          20.98          170.7          59.13          107.1
     1.185              -28.35           34.0          20.92          34.57         -2.066          15.48         -140.9          20.89          169.9          59.07          107.1
     1.219              -28.46          33.98          20.94          34.62         -2.132          15.47         -140.0          20.79          168.9           59.0          107.1
     1.253              -28.59          33.95          20.96          34.69         -2.211          15.45         -138.8          20.67          167.8          58.91          107.1
     1.286              -28.76          33.92          20.98          34.77         -2.307          15.43         -137.4          20.52          166.3           58.8          107.0
      1.32              -28.96          33.88          21.01          34.87         -2.424           15.4         -135.7          20.34          164.6          58.68          107.0
     1.354               -29.2          33.84          21.05          34.99         -2.568          15.36         -133.6          20.12          162.5          58.52          106.9
     1.388              -29.51          33.78          21.09          35.14         -2.748          15.32         -130.9          19.85          159.8          58.32          106.8
     1.422               -29.9          33.71          21.15          35.32         -2.975          15.26         -127.6           19.5          156.5          58.07          106.8
